<svg width="24" height="24" viewBox="0 0 24 24" fill="none" xmlns="http://www.w3.org/2000/svg">
  <path d="M12 9.81815V14.4654H18.4582C18.1746 15.96 17.3236 17.2255 16.0473 18.0764L19.9418 21.0982C22.2109 19.0037 23.52 15.9273 23.52 12.2728C23.52 11.4219 23.4436 10.6037 23.3018 9.81828L12 9.81815Z" fill="#4285F4"/>
  <path d="M5.27492 14.284L4.39656 14.9564L1.28741 17.3782C3.26196 21.2945 7.30893 24 11.9998 24C15.2397 24 17.956 22.9309 19.9415 21.0982L16.047 18.0764C14.9779 18.7964 13.6143 19.2328 11.9998 19.2328C8.87982 19.2328 6.22899 17.1273 5.27983 14.2909L5.27492 14.284Z" fill="#34A853"/>
  <path d="M1.28742 6.62183C0.469286 8.23631 0.000244141 10.0581 0.000244141 11.9999C0.000244141 13.9417 0.469286 15.7636 1.28742 17.378C1.28742 17.3889 5.28022 14.2799 5.28022 14.2799C5.04022 13.5599 4.89836 12.7963 4.89836 11.9998C4.89836 11.2033 5.04022 10.4398 5.28022 9.71976L1.28742 6.62183Z" fill="#FBBC05"/>
  <path d="M12 4.77818C13.7673 4.77818 15.3382 5.38907 16.5928 6.56727L20.0291 3.13095C17.9455 1.18917 15.2401 0 12 0C7.30917 0 3.26195 2.69454 1.28741 6.62183L5.28009 9.72001C6.22912 6.88362 8.88006 4.77818 12 4.77818Z" fill="#EA4335"/>
</svg>
